<svg xmlns="http://www.w3.org/2000/svg" width="550.001" height="550" viewBox="0 0 550.001 550">
  <g id="Group_12" data-name="Group 12" transform="translate(0)">
    <g id="Group_6" data-name="Group 6" transform="translate(266.681)">
      <g id="Group_2" data-name="Group 2">
        <g id="Group_1" data-name="Group 1">
          <path id="Path_1" data-name="Path 1" d="M236.623,775H453.9c18.207,0,33.02-17.051,33.02-38.008V263.009c0-20.958-14.813-38.009-33.02-38.009H236.623c-18.208,0-33.021,17.051-33.021,38.009V736.992C203.6,757.949,218.416,775,236.623,775ZM453.9,238.414c11.781,0,21.366,11.033,21.366,24.6V736.992c0,13.561-9.585,24.594-21.366,24.594H236.623c-11.782,0-21.367-11.033-21.367-24.594V263.009c0-13.562,9.585-24.6,21.367-24.6Z" transform="translate(-203.603 -225)" fill="#d0d0d0"/>
        </g>
      </g>
      <g id="Group_5" data-name="Group 5" transform="translate(74.417)">
        <g id="Group_3" data-name="Group 3" transform="translate(6.708 6.708)">
          <path id="Path_2" data-name="Path 2" d="M306.123,231.708v1.02c0,9.045,5.487,16.381,12.26,16.381h96.55c6.775,0,12.262-7.336,12.262-16.381v-1.02Z" transform="translate(-306.123 -231.708)" fill="#d0d0d0"/>
        </g>
        <g id="Group_4" data-name="Group 4">
          <path id="Path_3" data-name="Path 3" d="M318.384,255.815h96.55c10.637,0,18.969-10.14,18.969-23.087V225H299.416v7.728C299.416,245.675,307.749,255.815,318.384,255.815Zm100.955-17.4c-1.1,2.452-2.808,3.987-4.4,3.987h-96.55c-1.6,0-3.309-1.535-4.4-3.987Z" transform="translate(-299.416 -225)" fill="#d0d0d0"/>
        </g>
      </g>
    </g>
    <g id="Group_7" data-name="Group 7" transform="translate(0 235.145)">
      <path id="Path_4" data-name="Path 4" d="M603.81,448.886H789.69c3.7,0,6.707,2.61,6.707,5.828s-3,5.828-6.707,5.828H603.81c-13.561,0-24.594,9.584-24.594,21.366v50.706c10.11,1.765,17.4,8.157,17.4,15.993v83.88c0,7.835-7.292,14.229-17.4,15.993v50.705c0,11.782,11.033,21.367,24.594,21.367H789.69c3.7,0,6.707,2.609,6.707,5.827s-3,5.828-6.707,5.828H603.81c-20.958,0-38.008-14.813-38.008-33.02V481.906C565.8,463.7,582.852,448.886,603.81,448.886Z" transform="translate(-565.802 -421.885)" fill="#d0d0d0"/>
    </g>
    <g id="Group_11" data-name="Group 11" transform="translate(57.662 65.946)">
      <g id="Group_8" data-name="Group 8" transform="translate(12.132 17.283)">
        <path id="Path_5" data-name="Path 5" d="M590.183,402.676A146.18,146.18,0,0,1,725.6,286.384l-.483-9.155A155.355,155.355,0,0,0,581.206,400.821Z" transform="translate(-581.206 -277.229)" fill="#d0d0d0"/>
      </g>
      <g id="Group_9" data-name="Group 9" transform="translate(120.324)">
        <path id="Path_6" data-name="Path 6" d="M587.4,311.627a4.569,4.569,0,0,0,3.229-1.33l25.424-25.238a4.584,4.584,0,0,0-1.019-7.267L583.66,260.515a4.583,4.583,0,1,0-4.422,8.029l26.016,14.324L584.176,303.79a4.584,4.584,0,0,0,3.229,7.837Z" transform="translate(-576.864 -259.946)" fill="#d0d0d0"/>
      </g>
      <g id="Group_10" data-name="Group 10" transform="translate(0 103.482)">
        <path id="Path_7" data-name="Path 7" d="M704.174,406.332a4.582,4.582,0,0,0,2.7-.877L735.846,384.4a4.583,4.583,0,0,0-5.388-7.416L706.434,394.44l-9.979-27.969a4.583,4.583,0,1,0-8.633,3.082l12.035,33.735a4.582,4.582,0,0,0,4.317,3.044Z" transform="translate(-687.554 -363.427)" fill="#d0d0d0"/>
      </g>
    </g>
  </g>
</svg>
